# xmcd CD database file
#
# Track frame offsets:
#	150
#	21120
#	37730
#	61195
#	77025
#	101455
#	124307
#	153922
#	165865
#	182220
#
# Disc length: 2866 seconds
#
# Revision: 4
# Processed by: cddbd v1.5.2PL0 Copyright (c) Steve Scherf et al.
# Submitted via: CDex 1.70beta2
#
DISCID=6b0b300a
DTITLE=Rory Gallagher - Unknown CD for MusicBrainz and FreeDB
DYEAR=1900
DGENRE=
TTITLE0=Laundromat
TTITLE1=Just The Smile
TTITLE2=I Fall Apart
TTITLE3=Wave Myself Goodbye
TTITLE4=Hands Up
TTITLE5=Sinner Boy
TTITLE6=For The Last Time
TTITLE7=It's You
TTITLE8=I'm Not Surprised
TTITLE9=Can't Believe It's True
EXTD=
EXTT0=
EXTT1=
EXTT2=
EXTT3=
EXTT4=
EXTT5=
EXTT6=
EXTT7=
EXTT8=
EXTT9=
PLAYORDER=
